<svg xmlns="http://www.w3.org/2000/svg" width="375" viewBox="0 0 375 375" height="375" version="1.0"><defs><clipPath id="a"><path d="M 20.691406 152 L 188 152 L 188 299.570312 L 20.691406 299.570312 Z M 20.691406 152"/></clipPath><clipPath id="b"><path d="M 187 75.320312 L 354.441406 75.320312 L 354.441406 223 L 187 223 Z M 187 75.320312"/></clipPath></defs><path fill="#FFF" d="M-37.5 -37.5H412.5V412.5H-37.5z"/><path fill="#FFF" d="M-37.5 -37.5H412.5V412.5H-37.5z"/><path fill="#FEFFFF" d="M-37.5 -37.5H412.5V412.5H-37.5z"/><g clip-path="url(#a)"><path fill="#0652E9" d="M 133.070312 256.609375 L 133.070312 276.902344 L 41.070312 234.199219 L 41.070312 217.734375 L 133.070312 175.027344 L 133.070312 195.332031 L 63.496094 225.773438 L 63.496094 226.15625 Z M 187.707031 152.472656 L 33.855469 152.472656 C 26.59375 152.472656 20.703125 158.359375 20.703125 165.617188 L 20.703125 286.320312 C 20.703125 293.574219 26.59375 299.457031 33.855469 299.457031 L 145 299.457031 L 187.707031 152.472656"/></g><g clip-path="url(#b)"><path fill="#62E1E9" d="M 334.09375 157.695312 L 242.097656 199.824219 L 242.097656 179.523438 L 313.203125 149.078125 L 313.203125 148.695312 L 242.097656 118.246094 L 242.097656 97.949219 L 334.09375 140.078125 Z M 230.421875 75.394531 L 187.707031 222.378906 L 341.3125 222.378906 C 348.574219 222.378906 354.464844 216.496094 354.464844 209.234375 L 354.464844 88.535156 C 354.464844 81.277344 348.574219 75.394531 341.3125 75.394531 L 230.421875 75.394531"/></g></svg>