<?xml version="1.0" standalone="no"?>
<!DOCTYPE svg PUBLIC "-//W3C//DTD SVG 20010904//EN"
 "http://www.w3.org/TR/2001/REC-SVG-20010904/DTD/svg10.dtd">
<svg version="1.0" xmlns="http://www.w3.org/2000/svg"
 width="500.000000pt" height="500.000000pt" viewBox="0 0 500.000000 500.000000"
 preserveAspectRatio="xMidYMid meet">
<metadata>
Created by potrace 1.16, written by Peter Selinger 2001-2019
</metadata>
<g transform="translate(0.000000,500.000000) scale(0.100000,-0.100000)"
fill="#000000" stroke="none">
<path d="M375 2953 c-47 -24 -73 -53 -90 -97 -14 -36 -15 -141 -13 -886 l3
-845 23 -37 c13 -20 40 -47 60 -60 l37 -23 770 -3 771 -2 274 942 c150 519
279 962 286 986 l13 42 -1052 0 c-939 -1 -1055 -2 -1082 -17z m1388 -554 c-4
-4 -210 -96 -458 -204 -247 -107 -453 -199 -458 -204 -4 -4 201 -100 457 -212
l466 -204 0 -127 c0 -71 -2 -128 -5 -128 -3 0 -277 126 -608 280 l-602 280 -2
107 -3 108 608 281 607 282 3 -126 c1 -69 -1 -129 -5 -133z"/>
</g>
</svg>
