<svg xmlns="http://www.w3.org/2000/svg" width="300" viewBox="0 0 300 150" height="150" version="1.0"><defs><clipPath id="a"><path d="M 15 62 L 76 62 L 76 115.835938 L 15 115.835938 Z M 15 62"/></clipPath><clipPath id="b"><path d="M 75 34.085938 L 136.5 34.085938 L 136.5 88 L 75 88 Z M 75 34.085938"/></clipPath></defs><g clip-path="url(#a)"><path fill="#0652E9" d="M 55.910156 100.175781 L 55.910156 107.574219 L 22.417969 92.007812 L 22.417969 86.003906 L 55.910156 70.433594 L 55.910156 77.835938 L 30.582031 88.933594 L 30.582031 89.074219 Z M 75.800781 62.210938 L 19.792969 62.210938 C 17.148438 62.210938 15.003906 64.355469 15.003906 67.003906 L 15.003906 111.007812 C 15.003906 113.652344 17.148438 115.800781 19.792969 115.800781 L 60.253906 115.800781 L 75.800781 62.210938"/></g><g clip-path="url(#b)"><path fill="#62E1E9" d="M 129.09375 64.113281 L 95.601562 79.472656 L 95.601562 72.074219 L 121.488281 60.972656 L 121.488281 60.832031 L 95.601562 49.730469 L 95.601562 42.332031 L 129.09375 57.691406 Z M 91.351562 34.109375 L 75.800781 87.699219 L 131.71875 87.699219 C 134.363281 87.699219 136.507812 85.550781 136.507812 82.90625 L 136.507812 38.898438 C 136.507812 36.253906 134.363281 34.109375 131.71875 34.109375 L 91.351562 34.109375"/></g><g fill="#62E1E9"><g><g><path d="M 6.71875 0 L 8.941406 0 L 5.535156 -9.460938 L 3.199219 -9.460938 L -0.203125 0 L 2.019531 0 L 2.601562 -1.78125 L 6.132812 -1.78125 Z M 3.152344 -3.515625 L 4.367188 -7.269531 L 5.582031 -3.515625 Z M 3.152344 -3.515625" transform="translate(80.037 109.733)"/></g></g></g><g fill="#62E1E9"><g><g><path d="M 3.011719 -1.84375 L 3.011719 -9.460938 L 0.929688 -9.460938 L 0.929688 0 L 6.148438 0 L 6.148438 -1.84375 Z M 3.011719 -1.84375" transform="translate(89.324 109.733)"/></g></g></g><g fill="#62E1E9"><g><g><path d="M 0.992188 -2.585938 L 5.410156 -2.585938 L 5.410156 -3.972656 L 0.992188 -3.972656 Z M 0.992188 -2.585938" transform="translate(96.057 109.733)"/></g></g></g><g fill="#62E1E9"><g><g><path d="M 6.71875 0 L 8.941406 0 L 5.535156 -9.460938 L 3.199219 -9.460938 L -0.203125 0 L 2.019531 0 L 2.601562 -1.78125 L 6.132812 -1.78125 Z M 3.152344 -3.515625 L 4.367188 -7.269531 L 5.582031 -3.515625 Z M 3.152344 -3.515625" transform="translate(102.996 109.733)"/></g></g></g><g fill="#62E1E9"><g><g><path d="M 5.867188 -3.894531 C 6.984375 -4.226562 7.773438 -5.265625 7.773438 -6.558594 C 7.773438 -8.167969 6.574219 -9.460938 4.953125 -9.460938 L 0.929688 -9.460938 L 0.929688 0 L 3.011719 0 L 3.011719 -3.660156 L 3.847656 -3.660156 L 6.179688 0 L 8.515625 0 Z M 4.636719 -5.378906 L 3.011719 -5.378906 L 3.011719 -7.617188 L 4.636719 -7.617188 C 5.296875 -7.617188 5.789062 -7.144531 5.789062 -6.496094 C 5.789062 -5.835938 5.296875 -5.378906 4.636719 -5.378906 Z M 4.636719 -5.378906" transform="translate(112.283 109.733)"/></g></g></g><g fill="#62E1E9"><g><g><path d="M 6.71875 0 L 8.941406 0 L 5.535156 -9.460938 L 3.199219 -9.460938 L -0.203125 0 L 2.019531 0 L 2.601562 -1.78125 L 6.132812 -1.78125 Z M 3.152344 -3.515625 L 4.367188 -7.269531 L 5.582031 -3.515625 Z M 3.152344 -3.515625" transform="translate(121.27 109.733)"/></g></g></g><g fill="#62E1E9"><g><g><path d="M 3.847656 0.125 C 5.613281 0.125 7.113281 -0.914062 7.113281 -2.679688 C 7.113281 -6.179688 2.757812 -5.3125 2.757812 -6.953125 C 2.757812 -7.488281 3.167969 -7.742188 3.675781 -7.742188 C 4.210938 -7.742188 4.746094 -7.441406 5.21875 -6.921875 L 6.605469 -8.246094 C 5.914062 -9.050781 4.855469 -9.585938 3.691406 -9.585938 C 2.191406 -9.585938 0.664062 -8.6875 0.664062 -6.796875 C 0.664062 -3.578125 5.03125 -4.351562 5.03125 -2.695312 C 5.03125 -2.175781 4.589844 -1.828125 3.863281 -1.828125 C 2.996094 -1.828125 2.316406 -2.316406 1.972656 -3.058594 L 0.253906 -1.988281 C 0.867188 -0.804688 2.191406 0.125 3.847656 0.125 Z M 3.847656 0.125" transform="translate(130.558 109.733)"/></g></g></g><g fill="#62E1E9"><g><g><path d="M 6.859375 -9.460938 L 6.859375 -5.660156 L 3.011719 -5.660156 L 3.011719 -9.460938 L 0.929688 -9.460938 L 0.929688 0 L 3.011719 0 L 3.011719 -3.816406 L 6.859375 -3.816406 L 6.859375 0 L 8.925781 0 L 8.925781 -9.460938 Z M 6.859375 -9.460938" transform="translate(138.584 109.733)"/></g></g></g><g fill="#62E1E9"><g><g><path d="M 6.71875 0 L 8.941406 0 L 5.535156 -9.460938 L 3.199219 -9.460938 L -0.203125 0 L 2.019531 0 L 2.601562 -1.78125 L 6.132812 -1.78125 Z M 3.152344 -3.515625 L 4.367188 -7.269531 L 5.582031 -3.515625 Z M 3.152344 -3.515625" transform="translate(149.006 109.733)"/></g></g></g><g fill="#62E1E9"><g><g><path d="M 0.929688 0 L 4.050781 0 C 6.65625 0 8.78125 -2.113281 8.78125 -4.730469 C 8.78125 -7.347656 6.65625 -9.460938 4.050781 -9.460938 L 0.929688 -9.460938 Z M 3.011719 -1.84375 L 3.011719 -7.617188 L 4.035156 -7.617188 C 5.535156 -7.617188 6.703125 -6.371094 6.703125 -4.730469 C 6.703125 -3.089844 5.535156 -1.84375 4.035156 -1.84375 Z M 3.011719 -1.84375" transform="translate(158.293 109.733)"/></g></g></g><g fill="#62E1E9"><g><g><path d="M 6.71875 0 L 8.941406 0 L 5.535156 -9.460938 L 3.199219 -9.460938 L -0.203125 0 L 2.019531 0 L 2.601562 -1.78125 L 6.132812 -1.78125 Z M 3.152344 -3.515625 L 4.367188 -7.269531 L 5.582031 -3.515625 Z M 3.152344 -3.515625" transform="translate(172.548 109.733)"/></g></g></g><g fill="#62E1E9"><g><g><path d="M 6.859375 -9.460938 L 6.859375 -5.660156 L 3.011719 -5.660156 L 3.011719 -9.460938 L 0.929688 -9.460938 L 0.929688 0 L 3.011719 0 L 3.011719 -3.816406 L 6.859375 -3.816406 L 6.859375 0 L 8.925781 0 L 8.925781 -9.460938 Z M 6.859375 -9.460938" transform="translate(181.835 109.733)"/></g></g></g><g fill="#62E1E9"><g><g><path d="M 9.175781 -9.460938 L 6.164062 -2.917969 L 3.183594 -9.460938 L 0.929688 -9.460938 L 0.929688 0 L 3.011719 0 L 3.011719 -5.644531 L 5.566406 0 L 6.765625 0 L 9.335938 -5.628906 L 9.335938 0 L 11.417969 0 L 11.417969 -9.460938 Z M 9.175781 -9.460938" transform="translate(192.257 109.733)"/></g></g></g><g fill="#62E1E9"><g><g><path d="M 6.703125 -7.632812 L 6.703125 -9.460938 L 1.007812 -9.460938 L 1.007812 0 L 6.703125 0 L 6.703125 -1.828125 L 3.089844 -1.828125 L 3.089844 -3.816406 L 6.179688 -3.816406 L 6.179688 -5.644531 L 3.089844 -5.644531 L 3.089844 -7.632812 Z M 6.703125 -7.632812" transform="translate(205.154 109.733)"/></g></g></g><g fill="#62E1E9"><g><g><path d="M 0.929688 0 L 4.050781 0 C 6.65625 0 8.78125 -2.113281 8.78125 -4.730469 C 8.78125 -7.347656 6.65625 -9.460938 4.050781 -9.460938 L 0.929688 -9.460938 Z M 3.011719 -1.84375 L 3.011719 -7.617188 L 4.035156 -7.617188 C 5.535156 -7.617188 6.703125 -6.371094 6.703125 -4.730469 C 6.703125 -3.089844 5.535156 -1.84375 4.035156 -1.84375 Z M 3.011719 -1.84375" transform="translate(213.054 109.733)"/></g></g></g><g fill="#62E1E9"><g><g><path d="M 5.867188 -3.894531 C 6.984375 -4.226562 7.773438 -5.265625 7.773438 -6.558594 C 7.773438 -8.167969 6.574219 -9.460938 4.953125 -9.460938 L 0.929688 -9.460938 L 0.929688 0 L 3.011719 0 L 3.011719 -3.660156 L 3.847656 -3.660156 L 6.179688 0 L 8.515625 0 Z M 4.636719 -5.378906 L 3.011719 -5.378906 L 3.011719 -7.617188 L 4.636719 -7.617188 C 5.296875 -7.617188 5.789062 -7.144531 5.789062 -6.496094 C 5.789062 -5.835938 5.296875 -5.378906 4.636719 -5.378906 Z M 4.636719 -5.378906" transform="translate(227.31 109.733)"/></g></g></g><g fill="#62E1E9"><g><g><path d="M 6.71875 0 L 8.941406 0 L 5.535156 -9.460938 L 3.199219 -9.460938 L -0.203125 0 L 2.019531 0 L 2.601562 -1.78125 L 6.132812 -1.78125 Z M 3.152344 -3.515625 L 4.367188 -7.269531 L 5.582031 -3.515625 Z M 3.152344 -3.515625" transform="translate(236.297 109.733)"/></g></g></g><g fill="#62E1E9"><g><g><path d="M 6.386719 -9.460938 L 1.199219 -9.460938 L 1.199219 -7.617188 L 4.304688 -7.617188 L 4.304688 -2.695312 C 4.304688 -2.128906 3.894531 -1.703125 3.375 -1.703125 C 2.902344 -1.703125 2.539062 -2.050781 2.460938 -2.539062 L 0.410156 -1.941406 C 0.613281 -0.664062 1.640625 0.125 3.375 0.125 C 5.3125 0.125 6.386719 -0.867188 6.386719 -2.429688 Z M 6.386719 -9.460938" transform="translate(245.584 109.733)"/></g></g></g><g fill="#62E1E9"><g><g><path d="M 4.808594 0.125 C 7.046875 0.125 8.75 -1.246094 8.75 -3.027344 L 8.75 -9.460938 L 6.671875 -9.460938 L 6.671875 -3.421875 C 6.671875 -2.460938 5.867188 -1.71875 4.808594 -1.71875 C 3.769531 -1.71875 2.964844 -2.460938 2.964844 -3.421875 L 2.964844 -9.460938 L 0.882812 -9.460938 L 0.882812 -3.027344 C 0.882812 -1.246094 2.601562 0.125 4.808594 0.125 Z M 4.808594 0.125" transform="translate(253.31 109.733)"/></g></g></g><g fill="#62E1E9"><g><g><path d="M 6.71875 0 L 8.941406 0 L 5.535156 -9.460938 L 3.199219 -9.460938 L -0.203125 0 L 2.019531 0 L 2.601562 -1.78125 L 6.132812 -1.78125 Z M 3.152344 -3.515625 L 4.367188 -7.269531 L 5.582031 -3.515625 Z M 3.152344 -3.515625" transform="translate(263.496 109.733)"/></g></g></g><g fill="#62E1E9"><g><g><path d="M 7.726562 -9.460938 L 7.726562 -3.199219 L 3.074219 -9.460938 L 0.929688 -9.460938 L 0.929688 0 L 3.011719 0 L 3.011719 -6.277344 L 7.648438 0 L 9.792969 0 L 9.792969 -9.460938 Z M 7.726562 -9.460938" transform="translate(272.783 109.733)"/></g></g></g></svg>